<mxfile host="app.diagrams.net" modified="2023-06-16T02:52:09.516Z" agent="Mozilla/5.0 (Macintosh; Intel Mac OS X 10_15_7) AppleWebKit/537.36 (KHTML, like Gecko) Chrome/114.0.0.0 Safari/537.36" etag="By3GphvntFMsLkVlHsKq" version="21.4.0" type="github">
  <diagram id="C5RBs43oDa-KdzZeNtuy" name="Page-1">
    <mxGraphModel dx="607" dy="773" grid="1" gridSize="10" guides="1" tooltips="1" connect="1" arrows="1" fold="1" page="1" pageScale="1" pageWidth="827" pageHeight="1169" math="0" shadow="0">
      <root>
        <mxCell id="WIyWlLk6GJQsqaUBKTNV-0" />
        <mxCell id="WIyWlLk6GJQsqaUBKTNV-1" parent="WIyWlLk6GJQsqaUBKTNV-0" />
        <mxCell id="F5ElpD7NhXji4tfVKDMH-40" value="SCM" style="shape=umlLifeline;perimeter=lifelinePerimeter;whiteSpace=wrap;html=1;container=1;dropTarget=0;collapsible=0;recursiveResize=0;outlineConnect=0;portConstraint=eastwest;newEdgeStyle={&quot;edgeStyle&quot;:&quot;elbowEdgeStyle&quot;,&quot;elbow&quot;:&quot;vertical&quot;,&quot;curved&quot;:0,&quot;rounded&quot;:0};" vertex="1" parent="WIyWlLk6GJQsqaUBKTNV-1">
          <mxGeometry x="1470" y="25" width="100" height="765" as="geometry" />
        </mxCell>
        <mxCell id="F5ElpD7NhXji4tfVKDMH-41" value="" style="html=1;points=[];perimeter=orthogonalPerimeter;outlineConnect=0;targetShapes=umlLifeline;portConstraint=eastwest;newEdgeStyle={&quot;edgeStyle&quot;:&quot;elbowEdgeStyle&quot;,&quot;elbow&quot;:&quot;vertical&quot;,&quot;curved&quot;:0,&quot;rounded&quot;:0};" vertex="1" parent="F5ElpD7NhXji4tfVKDMH-40">
          <mxGeometry x="45" y="145" width="10" height="80" as="geometry" />
        </mxCell>
        <mxCell id="F5ElpD7NhXji4tfVKDMH-42" value="" style="html=1;points=[];perimeter=orthogonalPerimeter;outlineConnect=0;targetShapes=umlLifeline;portConstraint=eastwest;newEdgeStyle={&quot;edgeStyle&quot;:&quot;elbowEdgeStyle&quot;,&quot;elbow&quot;:&quot;vertical&quot;,&quot;curved&quot;:0,&quot;rounded&quot;:0};" vertex="1" parent="F5ElpD7NhXji4tfVKDMH-40">
          <mxGeometry x="45" y="65" width="10" height="50" as="geometry" />
        </mxCell>
        <mxCell id="F5ElpD7NhXji4tfVKDMH-43" value="" style="html=1;points=[];perimeter=orthogonalPerimeter;outlineConnect=0;targetShapes=umlLifeline;portConstraint=eastwest;newEdgeStyle={&quot;edgeStyle&quot;:&quot;elbowEdgeStyle&quot;,&quot;elbow&quot;:&quot;vertical&quot;,&quot;curved&quot;:0,&quot;rounded&quot;:0};" vertex="1" parent="F5ElpD7NhXji4tfVKDMH-40">
          <mxGeometry x="45" y="465" width="10" height="65" as="geometry" />
        </mxCell>
        <mxCell id="F5ElpD7NhXji4tfVKDMH-44" value="redis trigger" style="html=1;align=left;spacingLeft=2;endArrow=block;rounded=0;edgeStyle=orthogonalEdgeStyle;curved=0;rounded=0;" edge="1" parent="F5ElpD7NhXji4tfVKDMH-40" target="F5ElpD7NhXji4tfVKDMH-43">
          <mxGeometry relative="1" as="geometry">
            <mxPoint x="55" y="445" as="sourcePoint" />
            <Array as="points">
              <mxPoint x="85" y="475" />
            </Array>
            <mxPoint as="offset" />
          </mxGeometry>
        </mxCell>
        <mxCell id="F5ElpD7NhXji4tfVKDMH-45" value="Doris" style="shape=umlLifeline;perimeter=lifelinePerimeter;whiteSpace=wrap;html=1;container=1;dropTarget=0;collapsible=0;recursiveResize=0;outlineConnect=0;portConstraint=eastwest;newEdgeStyle={&quot;edgeStyle&quot;:&quot;elbowEdgeStyle&quot;,&quot;elbow&quot;:&quot;vertical&quot;,&quot;curved&quot;:0,&quot;rounded&quot;:0};" vertex="1" parent="WIyWlLk6GJQsqaUBKTNV-1">
          <mxGeometry x="1650" y="25" width="100" height="775" as="geometry" />
        </mxCell>
        <mxCell id="F5ElpD7NhXji4tfVKDMH-46" value="" style="html=1;points=[];perimeter=orthogonalPerimeter;outlineConnect=0;targetShapes=umlLifeline;portConstraint=eastwest;newEdgeStyle={&quot;edgeStyle&quot;:&quot;elbowEdgeStyle&quot;,&quot;elbow&quot;:&quot;vertical&quot;,&quot;curved&quot;:0,&quot;rounded&quot;:0};" vertex="1" parent="F5ElpD7NhXji4tfVKDMH-45">
          <mxGeometry x="45" y="165" width="10" height="65" as="geometry" />
        </mxCell>
        <mxCell id="F5ElpD7NhXji4tfVKDMH-47" value="" style="html=1;points=[];perimeter=orthogonalPerimeter;outlineConnect=0;targetShapes=umlLifeline;portConstraint=eastwest;newEdgeStyle={&quot;edgeStyle&quot;:&quot;elbowEdgeStyle&quot;,&quot;elbow&quot;:&quot;vertical&quot;,&quot;curved&quot;:0,&quot;rounded&quot;:0};" vertex="1" parent="F5ElpD7NhXji4tfVKDMH-45">
          <mxGeometry x="45" y="295" width="10" height="40" as="geometry" />
        </mxCell>
        <mxCell id="F5ElpD7NhXji4tfVKDMH-48" value="borker:&amp;nbsp; finishe query &amp;amp; export excel" style="html=1;align=left;spacingLeft=2;endArrow=block;rounded=0;edgeStyle=orthogonalEdgeStyle;curved=0;rounded=0;" edge="1" parent="F5ElpD7NhXji4tfVKDMH-45" target="F5ElpD7NhXji4tfVKDMH-47">
          <mxGeometry x="0.8824" y="-10" relative="1" as="geometry">
            <mxPoint x="50" y="265" as="sourcePoint" />
            <Array as="points">
              <mxPoint x="80" y="295" />
            </Array>
            <mxPoint as="offset" />
          </mxGeometry>
        </mxCell>
        <mxCell id="F5ElpD7NhXji4tfVKDMH-49" value="Minio" style="shape=umlLifeline;perimeter=lifelinePerimeter;whiteSpace=wrap;html=1;container=1;dropTarget=0;collapsible=0;recursiveResize=0;outlineConnect=0;portConstraint=eastwest;newEdgeStyle={&quot;edgeStyle&quot;:&quot;elbowEdgeStyle&quot;,&quot;elbow&quot;:&quot;vertical&quot;,&quot;curved&quot;:0,&quot;rounded&quot;:0};" vertex="1" parent="WIyWlLk6GJQsqaUBKTNV-1">
          <mxGeometry x="1830" y="25" width="110" height="775" as="geometry" />
        </mxCell>
        <mxCell id="F5ElpD7NhXji4tfVKDMH-50" value="" style="html=1;points=[];perimeter=orthogonalPerimeter;outlineConnect=0;targetShapes=umlLifeline;portConstraint=eastwest;newEdgeStyle={&quot;edgeStyle&quot;:&quot;elbowEdgeStyle&quot;,&quot;elbow&quot;:&quot;vertical&quot;,&quot;curved&quot;:0,&quot;rounded&quot;:0};" vertex="1" parent="F5ElpD7NhXji4tfVKDMH-49">
          <mxGeometry x="50" y="315" width="10" height="65" as="geometry" />
        </mxCell>
        <mxCell id="F5ElpD7NhXji4tfVKDMH-51" value="" style="html=1;points=[];perimeter=orthogonalPerimeter;outlineConnect=0;targetShapes=umlLifeline;portConstraint=eastwest;newEdgeStyle={&quot;edgeStyle&quot;:&quot;elbowEdgeStyle&quot;,&quot;elbow&quot;:&quot;vertical&quot;,&quot;curved&quot;:0,&quot;rounded&quot;:0};" vertex="1" parent="F5ElpD7NhXji4tfVKDMH-49">
          <mxGeometry x="50" y="415" width="10" height="40" as="geometry" />
        </mxCell>
        <mxCell id="F5ElpD7NhXji4tfVKDMH-52" value="redis trigger" style="html=1;align=left;spacingLeft=2;endArrow=block;rounded=0;edgeStyle=orthogonalEdgeStyle;curved=0;rounded=0;" edge="1" parent="F5ElpD7NhXji4tfVKDMH-49" target="F5ElpD7NhXji4tfVKDMH-51">
          <mxGeometry x="0.0118" relative="1" as="geometry">
            <mxPoint x="50" y="395" as="sourcePoint" />
            <Array as="points">
              <mxPoint x="80" y="425" />
            </Array>
            <mxPoint as="offset" />
          </mxGeometry>
        </mxCell>
        <mxCell id="F5ElpD7NhXji4tfVKDMH-53" style="edgeStyle=elbowEdgeStyle;rounded=0;orthogonalLoop=1;jettySize=auto;html=1;elbow=vertical;curved=0;" edge="1" parent="WIyWlLk6GJQsqaUBKTNV-1" source="F5ElpD7NhXji4tfVKDMH-72" target="F5ElpD7NhXji4tfVKDMH-41">
          <mxGeometry relative="1" as="geometry">
            <mxPoint x="1315" y="170" as="sourcePoint" />
            <Array as="points">
              <mxPoint x="1460" y="170" />
              <mxPoint x="1440" y="160" />
            </Array>
          </mxGeometry>
        </mxCell>
        <mxCell id="F5ElpD7NhXji4tfVKDMH-54" value="发起查询任务" style="edgeLabel;html=1;align=center;verticalAlign=middle;resizable=0;points=[];" vertex="1" connectable="0" parent="F5ElpD7NhXji4tfVKDMH-53">
          <mxGeometry x="-0.23" y="-4" relative="1" as="geometry">
            <mxPoint as="offset" />
          </mxGeometry>
        </mxCell>
        <mxCell id="F5ElpD7NhXji4tfVKDMH-55" style="edgeStyle=elbowEdgeStyle;rounded=0;orthogonalLoop=1;jettySize=auto;html=1;elbow=vertical;curved=0;" edge="1" parent="WIyWlLk6GJQsqaUBKTNV-1" source="F5ElpD7NhXji4tfVKDMH-41" target="F5ElpD7NhXji4tfVKDMH-46">
          <mxGeometry relative="1" as="geometry">
            <Array as="points">
              <mxPoint x="1670" y="190" />
            </Array>
          </mxGeometry>
        </mxCell>
        <mxCell id="F5ElpD7NhXji4tfVKDMH-56" value="调用执行" style="edgeLabel;html=1;align=center;verticalAlign=middle;resizable=0;points=[];" vertex="1" connectable="0" parent="F5ElpD7NhXji4tfVKDMH-55">
          <mxGeometry x="-0.17" y="-3" relative="1" as="geometry">
            <mxPoint as="offset" />
          </mxGeometry>
        </mxCell>
        <mxCell id="F5ElpD7NhXji4tfVKDMH-57" style="edgeStyle=elbowEdgeStyle;rounded=0;orthogonalLoop=1;jettySize=auto;html=1;elbow=vertical;curved=0;" edge="1" parent="WIyWlLk6GJQsqaUBKTNV-1" source="F5ElpD7NhXji4tfVKDMH-47" target="F5ElpD7NhXji4tfVKDMH-50">
          <mxGeometry relative="1" as="geometry" />
        </mxCell>
        <mxCell id="F5ElpD7NhXji4tfVKDMH-58" value="save 2 minio" style="edgeLabel;html=1;align=center;verticalAlign=middle;resizable=0;points=[];" vertex="1" connectable="0" parent="F5ElpD7NhXji4tfVKDMH-57">
          <mxGeometry x="-0.1895" y="-2" relative="1" as="geometry">
            <mxPoint x="18" as="offset" />
          </mxGeometry>
        </mxCell>
        <mxCell id="F5ElpD7NhXji4tfVKDMH-59" style="edgeStyle=elbowEdgeStyle;rounded=0;orthogonalLoop=1;jettySize=auto;html=1;elbow=vertical;curved=0;dashed=1;" edge="1" parent="WIyWlLk6GJQsqaUBKTNV-1" source="F5ElpD7NhXji4tfVKDMH-46" target="F5ElpD7NhXji4tfVKDMH-41">
          <mxGeometry relative="1" as="geometry">
            <mxPoint x="1530" y="240" as="targetPoint" />
            <Array as="points">
              <mxPoint x="1620" y="240" />
            </Array>
          </mxGeometry>
        </mxCell>
        <mxCell id="F5ElpD7NhXji4tfVKDMH-60" value="执行中" style="edgeLabel;html=1;align=center;verticalAlign=middle;resizable=0;points=[];" vertex="1" connectable="0" parent="F5ElpD7NhXji4tfVKDMH-59">
          <mxGeometry x="0.15" y="-3" relative="1" as="geometry">
            <mxPoint as="offset" />
          </mxGeometry>
        </mxCell>
        <mxCell id="F5ElpD7NhXji4tfVKDMH-61" style="edgeStyle=elbowEdgeStyle;rounded=0;orthogonalLoop=1;jettySize=auto;html=1;elbow=vertical;curved=0;dashed=1;" edge="1" parent="WIyWlLk6GJQsqaUBKTNV-1" source="F5ElpD7NhXji4tfVKDMH-41">
          <mxGeometry relative="1" as="geometry">
            <mxPoint x="1315" y="240" as="targetPoint" />
            <Array as="points">
              <mxPoint x="1440" y="240" />
            </Array>
          </mxGeometry>
        </mxCell>
        <mxCell id="F5ElpD7NhXji4tfVKDMH-62" value="执行中" style="edgeLabel;html=1;align=center;verticalAlign=middle;resizable=0;points=[];" vertex="1" connectable="0" parent="F5ElpD7NhXji4tfVKDMH-61">
          <mxGeometry x="-0.08" y="3" relative="1" as="geometry">
            <mxPoint as="offset" />
          </mxGeometry>
        </mxCell>
        <mxCell id="F5ElpD7NhXji4tfVKDMH-63" value="redis" style="shape=umlLifeline;perimeter=lifelinePerimeter;whiteSpace=wrap;html=1;container=1;dropTarget=0;collapsible=0;recursiveResize=0;outlineConnect=0;portConstraint=eastwest;newEdgeStyle={&quot;edgeStyle&quot;:&quot;elbowEdgeStyle&quot;,&quot;elbow&quot;:&quot;vertical&quot;,&quot;curved&quot;:0,&quot;rounded&quot;:0};" vertex="1" parent="WIyWlLk6GJQsqaUBKTNV-1">
          <mxGeometry x="2010" y="25" width="100" height="785" as="geometry" />
        </mxCell>
        <mxCell id="F5ElpD7NhXji4tfVKDMH-64" value="" style="html=1;points=[];perimeter=orthogonalPerimeter;outlineConnect=0;targetShapes=umlLifeline;portConstraint=eastwest;newEdgeStyle={&quot;edgeStyle&quot;:&quot;elbowEdgeStyle&quot;,&quot;elbow&quot;:&quot;vertical&quot;,&quot;curved&quot;:0,&quot;rounded&quot;:0};" vertex="1" parent="F5ElpD7NhXji4tfVKDMH-63">
          <mxGeometry x="45" y="50" width="10" height="520" as="geometry" />
        </mxCell>
        <mxCell id="F5ElpD7NhXji4tfVKDMH-65" style="edgeStyle=elbowEdgeStyle;rounded=0;orthogonalLoop=1;jettySize=auto;html=1;elbow=vertical;curved=0;entryX=0.5;entryY=0.25;entryDx=0;entryDy=0;entryPerimeter=0;" edge="1" parent="WIyWlLk6GJQsqaUBKTNV-1" source="F5ElpD7NhXji4tfVKDMH-51">
          <mxGeometry relative="1" as="geometry">
            <mxPoint x="2060" y="480" as="targetPoint" />
            <Array as="points">
              <mxPoint x="1920" y="480" />
            </Array>
          </mxGeometry>
        </mxCell>
        <mxCell id="F5ElpD7NhXji4tfVKDMH-66" value="push message" style="edgeLabel;html=1;align=center;verticalAlign=middle;resizable=0;points=[];" vertex="1" connectable="0" parent="F5ElpD7NhXji4tfVKDMH-65">
          <mxGeometry x="0.0545" y="1" relative="1" as="geometry">
            <mxPoint as="offset" />
          </mxGeometry>
        </mxCell>
        <mxCell id="F5ElpD7NhXji4tfVKDMH-67" style="edgeStyle=elbowEdgeStyle;rounded=0;orthogonalLoop=1;jettySize=auto;html=1;elbow=vertical;curved=0;" edge="1" parent="WIyWlLk6GJQsqaUBKTNV-1" source="F5ElpD7NhXji4tfVKDMH-42" target="F5ElpD7NhXji4tfVKDMH-64">
          <mxGeometry relative="1" as="geometry">
            <Array as="points">
              <mxPoint x="1680" y="90" />
            </Array>
          </mxGeometry>
        </mxCell>
        <mxCell id="F5ElpD7NhXji4tfVKDMH-68" value="listen" style="edgeLabel;html=1;align=center;verticalAlign=middle;resizable=0;points=[];" vertex="1" connectable="0" parent="F5ElpD7NhXji4tfVKDMH-67">
          <mxGeometry x="0.1019" y="-1" relative="1" as="geometry">
            <mxPoint as="offset" />
          </mxGeometry>
        </mxCell>
        <mxCell id="F5ElpD7NhXji4tfVKDMH-69" style="edgeStyle=elbowEdgeStyle;rounded=0;orthogonalLoop=1;jettySize=auto;html=1;elbow=vertical;curved=0;dashed=1;" edge="1" parent="WIyWlLk6GJQsqaUBKTNV-1" source="F5ElpD7NhXji4tfVKDMH-64" target="F5ElpD7NhXji4tfVKDMH-43">
          <mxGeometry relative="1" as="geometry">
            <Array as="points">
              <mxPoint x="2030" y="540" />
            </Array>
          </mxGeometry>
        </mxCell>
        <mxCell id="F5ElpD7NhXji4tfVKDMH-70" value="message&amp;nbsp;" style="edgeLabel;html=1;align=center;verticalAlign=middle;resizable=0;points=[];" vertex="1" connectable="0" parent="F5ElpD7NhXji4tfVKDMH-69">
          <mxGeometry x="-0.1358" y="-1" relative="1" as="geometry">
            <mxPoint as="offset" />
          </mxGeometry>
        </mxCell>
        <mxCell id="F5ElpD7NhXji4tfVKDMH-71" value="OTB" style="shape=umlLifeline;perimeter=lifelinePerimeter;whiteSpace=wrap;html=1;container=1;dropTarget=0;collapsible=0;recursiveResize=0;outlineConnect=0;portConstraint=eastwest;newEdgeStyle={&quot;edgeStyle&quot;:&quot;elbowEdgeStyle&quot;,&quot;elbow&quot;:&quot;vertical&quot;,&quot;curved&quot;:0,&quot;rounded&quot;:0};" vertex="1" parent="WIyWlLk6GJQsqaUBKTNV-1">
          <mxGeometry x="1270" y="30" width="100" height="790" as="geometry" />
        </mxCell>
        <mxCell id="F5ElpD7NhXji4tfVKDMH-72" value="" style="html=1;points=[];perimeter=orthogonalPerimeter;outlineConnect=0;targetShapes=umlLifeline;portConstraint=eastwest;newEdgeStyle={&quot;edgeStyle&quot;:&quot;elbowEdgeStyle&quot;,&quot;elbow&quot;:&quot;vertical&quot;,&quot;curved&quot;:0,&quot;rounded&quot;:0};" vertex="1" parent="F5ElpD7NhXji4tfVKDMH-71">
          <mxGeometry x="45" y="140" width="10" height="75" as="geometry" />
        </mxCell>
        <mxCell id="F5ElpD7NhXji4tfVKDMH-73" value="" style="html=1;points=[];perimeter=orthogonalPerimeter;outlineConnect=0;targetShapes=umlLifeline;portConstraint=eastwest;newEdgeStyle={&quot;edgeStyle&quot;:&quot;elbowEdgeStyle&quot;,&quot;elbow&quot;:&quot;vertical&quot;,&quot;curved&quot;:0,&quot;rounded&quot;:0};" vertex="1" parent="F5ElpD7NhXji4tfVKDMH-71">
          <mxGeometry x="45" y="520" width="10" height="65" as="geometry" />
        </mxCell>
        <mxCell id="F5ElpD7NhXji4tfVKDMH-74" value="" style="html=1;points=[];perimeter=orthogonalPerimeter;outlineConnect=0;targetShapes=umlLifeline;portConstraint=eastwest;newEdgeStyle={&quot;edgeStyle&quot;:&quot;elbowEdgeStyle&quot;,&quot;elbow&quot;:&quot;vertical&quot;,&quot;curved&quot;:0,&quot;rounded&quot;:0};" vertex="1" parent="F5ElpD7NhXji4tfVKDMH-71">
          <mxGeometry x="45" y="670" width="10" height="70" as="geometry" />
        </mxCell>
        <mxCell id="F5ElpD7NhXji4tfVKDMH-75" value="get&amp;nbsp; minio file &amp;amp; save 2 otb database" style="html=1;align=left;spacingLeft=2;endArrow=block;rounded=0;edgeStyle=orthogonalEdgeStyle;curved=0;rounded=0;" edge="1" parent="F5ElpD7NhXji4tfVKDMH-71" target="F5ElpD7NhXji4tfVKDMH-74">
          <mxGeometry relative="1" as="geometry">
            <mxPoint x="50" y="650" as="sourcePoint" />
            <Array as="points">
              <mxPoint x="80" y="680" />
            </Array>
          </mxGeometry>
        </mxCell>
        <mxCell id="F5ElpD7NhXji4tfVKDMH-76" style="edgeStyle=orthogonalEdgeStyle;rounded=0;orthogonalLoop=1;jettySize=auto;html=1;" edge="1" parent="WIyWlLk6GJQsqaUBKTNV-1" source="F5ElpD7NhXji4tfVKDMH-77" target="F5ElpD7NhXji4tfVKDMH-72">
          <mxGeometry relative="1" as="geometry">
            <Array as="points">
              <mxPoint x="1210" y="170" />
              <mxPoint x="1210" y="170" />
            </Array>
          </mxGeometry>
        </mxCell>
        <mxCell id="F5ElpD7NhXji4tfVKDMH-77" value="Actor" style="shape=umlActor;verticalLabelPosition=bottom;verticalAlign=top;html=1;" vertex="1" parent="WIyWlLk6GJQsqaUBKTNV-1">
          <mxGeometry x="1130" y="140" width="30" height="60" as="geometry" />
        </mxCell>
        <mxCell id="F5ElpD7NhXji4tfVKDMH-78" style="edgeStyle=elbowEdgeStyle;rounded=0;orthogonalLoop=1;jettySize=auto;html=1;elbow=vertical;curved=0;" edge="1" parent="WIyWlLk6GJQsqaUBKTNV-1" source="F5ElpD7NhXji4tfVKDMH-43" target="F5ElpD7NhXji4tfVKDMH-73">
          <mxGeometry relative="1" as="geometry">
            <Array as="points">
              <mxPoint x="1490" y="550" />
            </Array>
          </mxGeometry>
        </mxCell>
        <mxCell id="F5ElpD7NhXji4tfVKDMH-79" value="down minio ur(export data)l" style="edgeLabel;html=1;align=center;verticalAlign=middle;resizable=0;points=[];" vertex="1" connectable="0" parent="F5ElpD7NhXji4tfVKDMH-78">
          <mxGeometry x="0.3" relative="1" as="geometry">
            <mxPoint x="45" y="-3" as="offset" />
          </mxGeometry>
        </mxCell>
      </root>
    </mxGraphModel>
  </diagram>
</mxfile>
